<?xml version="1.0" encoding="utf-8"?>
<!-- Generator: Adobe Illustrator 19.0.0, SVG Export Plug-In . SVG Version: 6.00 Build 0)  -->
<svg version="1.1" id="图层_1" xmlns:sketch="http://www.bohemiancoding.com/sketch/ns"
	 xmlns="http://www.w3.org/2000/svg" xmlns:xlink="http://www.w3.org/1999/xlink" x="0px" y="0px" viewBox="-392 286.3 23 23"
	 style="enable-background:new -392 286.3 23 23;" xml:space="preserve">
<style type="text/css">
	.st0{fill:#6A6E6A;}
</style>
<title>Imported Layers</title>
<desc>Created with Sketch.</desc>
<g id="News" sketch:type="MSPage">
	<g id="DJI-Stories-Copy" transform="translate(-1250.000000, -2050.000000)" sketch:type="MSArtboardGroup">
		<g id="Imported-Layers" transform="translate(1250.000000, 2050.000000)" sketch:type="MSLayerGroup">
			<path id="Fill-1" sketch:type="MSShapeGroup" class="st0" d="M-369,289.8c0-1.9-1.6-3.5-3.5-3.5h-16c-1.9,0-3.5,1.6-3.5,3.5v16
				c0,1.9,1.6,3.5,3.5,3.5h16c1.9,0,3.5-1.6,3.5-3.5V289.8L-369,289.8z M-389.1,301.3c-0.1,0-0.2,0-0.3-0.1
				c-0.5-0.2-0.3-0.8-0.3-0.9l0.6-1.4l-1.6-2.8c0,0-0.3-0.6,0.2-0.9c0.1-0.1,0.2-0.1,0.3-0.1c0.3,0,0.5,0.2,0.6,0.4l1.1,2l0.9-1.9
				c0.1-0.2,0.2-0.5,0.5-0.5c0.1,0,0.2,0,0.3,0.1c0.2,0.1,0.3,0.2,0.3,0.3c0.1,0.3,0,0.6,0,0.6l-2.1,4.7
				C-388.6,301-388.8,301.3-389.1,301.3L-389.1,301.3z M-384.1,299.6L-384.1,299.6h-0.1c-0.6,0-1.2-0.2-1.6-0.7
				c-0.4-0.4-0.6-1-0.6-1.6c0-1.2,0.9-2.3,2.1-2.3c1.2,0,2.2,1,2.2,2.3C-382.1,298.8-382.9,299.6-384.1,299.6L-384.1,299.6z
				 M-378.1,298c0,1.1-0.9,1.6-2.1,1.6c-1.2,0-2.1-0.6-2.1-1.6v-2.1c0-0.4,0.3-0.7,0.6-0.7c0.3,0,0.6,0.2,0.6,0.7v2.1
				c0,0.5,0.4,0.8,0.9,0.8c0.4,0,0.9-0.3,0.9-0.8v-2.1c0-0.4,0.2-0.6,0.6-0.6c0.4,0,0.6,0.2,0.6,0.6V298L-378.1,298z M-374.3,299.4
				c-0.1,0.1-0.3,0.2-0.4,0.2c-0.2,0-0.3-0.1-0.4-0.2c-0.1-0.1-1.7-1.6-1.7-1.6l0,0v1.3c0,0.4,0,0.5-0.6,0.5v-0.1h0l0,0
				c-0.4,0-0.6-0.1-0.6-0.5v-3.2c0-0.4,0.2-0.6,0.6-0.6c0.4,0,0.6,0.2,0.6,0.6v1.2l1.5-1.6c0.1-0.1,0.3-0.2,0.5-0.2
				c0.2,0,0.3,0.1,0.4,0.2c0.4,0.4,0,0.9-0.1,1l-1.1,1l1.2,1.1c0.1,0.1,0.2,0.3,0.2,0.5C-374.2,299.2-374.2,299.4-374.3,299.4
				L-374.3,299.4z M-370.2,298c0,1.1-0.9,1.6-2.1,1.6c-1.2,0-1.5-0.6-2.1-1.6v-2.1c0-0.4,0.3-0.7,0.6-0.7c0.3,0,0.6,0.2,0.6,0.7v2.1
				c0,0.5,0.4,0.8,0.9,0.8c0.4,0,0.9-0.3,0.9-0.8v-2.1c0-0.4,0.3-0.6,0.6-0.6c0.4,0,0.6,0.2,0.6,0.6V298L-370.2,298z"/>
			<path id="Fill-2" sketch:type="MSShapeGroup" class="st0" d="M-384.4,296L-384.4,296c-0.5,0-1,0.7-1,1.3c0,0.3,0.1,0.7,0.3,0.9
				c0.2,0.2,0.4,0.4,0.7,0.4c0.5,0,1-0.6,1-1.3C-383.4,296.6-383.8,296-384.4,296"/>
		</g>
	</g>
</g>
</svg>
